<svg width="40" height="40" viewBox="0 0 40 40" fill="none" xmlns="http://www.w3.org/2000/svg">
<path d="M15.2474 12.4805C14.3141 12.4805 13.5807 13.2305 13.5807 14.1471C13.5807 15.0638 14.3307 15.8138 15.2474 15.8138C16.1641 15.8138 16.914 15.0638 16.914 14.1471C16.914 13.2305 16.1641 12.4805 15.2474 12.4805Z" fill="#FF5722"/>
<path d="M35.7667 8.39998C34.3667 5.14998 31.2833 3.33331 26.9833 3.33331H13.0167C7.66668 3.33331 3.33334 7.66665 3.33334 13.0166V26.9833C3.33334 31.2833 5.15001 34.3666 8.40001 35.7666C8.71668 35.9 9.08334 35.8166 9.31668 35.5833L35.5833 9.31665C35.8333 9.06665 35.9167 8.69998 35.7667 8.39998ZM17.55 20.4C16.9 21.0333 16.05 21.3333 15.2 21.3333C14.35 21.3333 13.5 21.0166 12.85 20.4C11.15 18.8 9.28334 16.25 10 13.2166C10.6333 10.4666 13.0667 9.23331 15.2 9.23331C17.3333 9.23331 19.7667 10.4666 20.4 13.2333C21.1 16.25 19.2333 18.8 17.55 20.4Z" fill="#FF5722"/>
<path d="M32.4482 34.2158C32.8148 34.5825 32.7648 35.1825 32.3148 35.4325C30.8482 36.2492 29.0648 36.6658 26.9815 36.6658H13.0149C12.5315 36.6658 12.3315 36.0992 12.6649 35.7658L22.7315 25.6992C23.0648 25.3658 23.5815 25.3658 23.9148 25.6992L32.4482 34.2158Z" fill="#FF5722"/>
<path d="M36.6695 13.0149V26.9815C36.6695 29.0648 36.2528 30.8648 35.4362 32.3148C35.1862 32.7648 34.5862 32.7982 34.2195 32.4482L25.6862 23.9148C25.3528 23.5815 25.3528 23.0648 25.6862 22.7315L35.7528 12.6649C36.1028 12.3315 36.6695 12.5315 36.6695 13.0149Z" fill="#FF5722"/>
</svg>
